<svg width="108" height="108" viewBox="0 0 108 108" fill="none" xmlns="http://www.w3.org/2000/svg">
<rect width="108" height="108" rx="54" fill="white"/>
<path d="M72.1693 56.3386C76.3679 56.3386 80.3945 58.0065 83.3633 60.9753C86.3321 63.9442 88 67.9708 88 72.1693C88 76.3679 86.3321 80.3945 83.3633 83.3633C80.3945 86.3321 76.3679 88 72.1693 88C67.9707 88 63.9441 86.3321 60.9753 83.3633C58.0065 80.3945 56.3386 76.3679 56.3386 72.1693C56.3386 67.9708 58.0065 63.9442 60.9753 60.9753C63.9441 58.0065 67.9707 56.3386 72.1693 56.3386Z" fill="#378648"/>
<path d="M63.1746 72.1693C63.1746 70.9766 64.1406 70.0106 65.3333 70.0106H79.0053C80.198 70.0106 81.164 70.9766 81.164 72.1693C81.164 73.362 80.198 74.328 79.0053 74.328H65.3333C64.1406 74.328 63.1746 73.362 63.1746 72.1693Z" fill="#FCFCF7"/>
<path d="M70.0106 65.6931C70.0106 64.5004 70.9766 63.5344 72.1693 63.5344C73.362 63.5344 74.3281 64.5004 74.3281 65.6931C74.3281 66.8858 73.362 67.8519 72.1693 67.8519C70.9766 67.8519 70.0106 66.8858 70.0106 65.6931Z" fill="#FCFCF7"/>
<path d="M70.0106 78.6455C70.0106 77.4528 70.9766 76.4868 72.1693 76.4868C73.362 76.4868 74.3281 77.4528 74.3281 78.6455C74.3281 79.8382 73.362 80.8042 72.1693 80.8042C70.9766 80.8042 70.0106 79.8382 70.0106 78.6455Z" fill="#FCFCF7"/>
<path d="M35.8307 56.3386C40.0292 56.3386 44.0558 58.0065 47.0247 60.9753C49.9935 63.9442 51.6614 67.9708 51.6614 72.1693C51.6614 76.3679 49.9935 80.3945 47.0247 83.3633C44.0558 86.3321 40.0292 88 35.8307 88C31.6321 88 27.6055 86.3321 24.6367 83.3633C21.6679 80.3945 20 76.3679 20 72.1693C20 67.9708 21.6679 63.9442 24.6367 60.9753C27.6055 58.0065 31.6321 56.3386 35.8307 56.3386Z" fill="#378648"/>
<path d="M28.6619 65.0005C29.4175 64.2449 30.6443 64.2449 31.3999 65.0005L43.138 76.7386C43.8935 77.4942 43.8935 78.721 43.138 79.4766C42.3824 80.2321 41.1555 80.2321 40.4 79.4766L28.6619 67.7385C27.9063 66.9829 27.9063 65.7561 28.6619 65.0005Z" fill="#FCFCF7"/>
<path d="M43.138 65.0005C43.8935 65.7561 43.8935 66.9829 43.138 67.7385L31.3999 79.4766C30.6443 80.2321 29.4175 80.2321 28.6619 79.4766C27.9063 78.721 27.9063 77.4942 28.6619 76.7386L40.4 65.0005C41.1555 64.2449 42.3824 64.2449 43.138 65.0005Z" fill="#FCFCF7"/>
<path d="M72.1693 20C76.3679 20 80.3945 21.6679 83.3633 24.6367C86.3321 27.6055 88 31.6321 88 35.8307C88 40.0292 86.3321 44.0558 83.3633 47.0247C80.3945 49.9935 76.3679 51.6614 72.1693 51.6614C67.9707 51.6614 63.9441 49.9935 60.9753 47.0247C58.0065 44.0558 56.3386 40.0292 56.3386 35.8307C56.3386 31.6321 58.0065 27.6055 60.9753 24.6367C63.9441 21.6679 67.9707 20 72.1693 20Z" fill="#378648"/>
<path d="M63.1746 35.8307C63.1746 34.638 64.1406 33.672 65.3333 33.672H79.0053C80.198 33.672 81.164 34.638 81.164 35.8307C81.164 37.0234 80.198 37.9894 79.0053 37.9894H65.3333C64.1406 37.9894 63.1746 37.0234 63.1746 35.8307Z" fill="#FCFCF7"/>
<path d="M35.8307 20C40.0292 20 44.0558 21.6679 47.0247 24.6367C49.9935 27.6055 51.6614 31.6321 51.6614 35.8307C51.6614 40.0292 49.9935 44.0558 47.0247 47.0247C44.0558 49.9935 40.0292 51.6614 35.8307 51.6614C31.6321 51.6614 27.6055 49.9935 24.6367 47.0247C21.6679 44.0558 20 40.0292 20 35.8307C20 31.6321 21.6679 27.6055 24.6367 24.6367C27.6055 21.6679 31.6321 20 35.8307 20Z" fill="#378648"/>
<path d="M26.836 35.8307C26.836 34.638 27.802 33.672 28.9947 33.672H42.6667C43.8594 33.672 44.8254 34.638 44.8254 35.8307C44.8254 37.0234 43.8594 37.9894 42.6667 37.9894H28.9947C27.802 37.9894 26.836 37.0234 26.836 35.8307Z" fill="#FCFCF7"/>
<path d="M35.8307 26.836C37.0234 26.836 37.9894 27.802 37.9894 28.9947V42.6667C37.9894 43.8594 37.0234 44.8254 35.8307 44.8254C34.638 44.8254 33.672 43.8594 33.672 42.6667V28.9947C33.672 27.802 34.638 26.836 35.8307 26.836Z" fill="#FCFCF7"/>
</svg>
